<svg width="70" height="70" viewBox="0 0 70 70" fill="none" xmlns="http://www.w3.org/2000/svg">
<path d="M54.0104 11.9875L64.8646 18.5C66.253 19.3329 67.402 20.5112 68.1997 21.9201C68.9975 23.329 69.4167 24.9205 69.4167 26.5396V60.5C69.4167 62.9864 68.4289 65.371 66.6708 67.1291C64.9126 68.8873 62.5281 69.875 60.0417 69.875H10.0417C7.55525 69.875 5.17068 68.8873 3.41253 67.1291C1.65438 65.371 0.666657 62.9864 0.666657 60.5V26.5396C0.666245 24.9202 1.08533 23.3283 1.88308 21.919C2.68084 20.5097 3.83004 19.331 5.21874 18.4979L16.0729 11.9875L19.2875 17.3458L8.43332 23.8583C7.97015 24.1364 7.58696 24.5297 7.32114 25C7.05533 25.4703 6.91597 26.0015 6.91666 26.5417V60.5C6.91666 61.3288 7.2459 62.1237 7.83195 62.7097C8.418 63.2958 9.21285 63.625 10.0417 63.625H60.0417C60.8705 63.625 61.6653 63.2958 62.2514 62.7097C62.8374 62.1237 63.1667 61.3288 63.1667 60.5V26.5396C63.167 25.9997 63.0275 25.469 62.7617 24.9991C62.4959 24.5292 62.1129 24.1362 61.65 23.8583L50.7958 17.3458L54.0104 11.9875ZM35.0417 0.0833435L47.5417 7.58334L42.2187 18.8333H42.0375L45.4583 47.4521L35.0417 56.3333L24.625 47.4521L28.0437 18.8333H27.8979L22.5417 7.58334L35.0417 0.0833435ZM36.5437 18.8333H33.5375L30.3875 45.1979L35.0417 49.1646L39.6958 45.1979L36.5417 18.8333H36.5437ZM35.0417 7.37293L30.625 10.0229L31.8437 12.5833H38.2604L39.4687 10.0292L35.0417 7.37501V7.37293Z" fill="black"/>
<path d="M54.0104 11.9875L64.8646 18.5C66.253 19.3329 67.402 20.5112 68.1997 21.9201C68.9975 23.329 69.4167 24.9205 69.4167 26.5396V60.5C69.4167 62.9864 68.4289 65.371 66.6708 67.1291C64.9126 68.8873 62.5281 69.875 60.0417 69.875H10.0417C7.55525 69.875 5.17068 68.8873 3.41253 67.1291C1.65438 65.371 0.666657 62.9864 0.666657 60.5V26.5396C0.666245 24.9202 1.08533 23.3283 1.88308 21.919C2.68084 20.5097 3.83004 19.331 5.21874 18.4979L16.0729 11.9875L19.2875 17.3458L8.43332 23.8583C7.97015 24.1364 7.58696 24.5297 7.32114 25C7.05533 25.4703 6.91597 26.0015 6.91666 26.5417V60.5C6.91666 61.3288 7.2459 62.1237 7.83195 62.7097C8.418 63.2958 9.21285 63.625 10.0417 63.625H60.0417C60.8705 63.625 61.6653 63.2958 62.2514 62.7097C62.8374 62.1237 63.1667 61.3288 63.1667 60.5V26.5396C63.167 25.9997 63.0275 25.469 62.7617 24.9991C62.4959 24.5292 62.1129 24.1362 61.65 23.8583L50.7958 17.3458L54.0104 11.9875ZM35.0417 0.0833435L47.5417 7.58334L42.2187 18.8333H42.0375L45.4583 47.4521L35.0417 56.3333L24.625 47.4521L28.0437 18.8333H27.8979L22.5417 7.58334L35.0417 0.0833435ZM36.5437 18.8333H33.5375L30.3875 45.1979L35.0417 49.1646L39.6958 45.1979L36.5417 18.8333H36.5437ZM35.0417 7.37293L30.625 10.0229L31.8437 12.5833H38.2604L39.4687 10.0292L35.0417 7.37501V7.37293Z" fill="url(#paint0_linear_5_39)"/>
<defs>
<linearGradient id="paint0_linear_5_39" x1="69.4167" y1="0.0833435" x2="0.666656" y2="0.0833435" gradientUnits="userSpaceOnUse">
<stop stop-color="#B3E5FC"/>
<stop offset="1" stop-color="#C8E6C9"/>
</linearGradient>
</defs>
</svg>
