<svg version="1.1" xmlns="http://www.w3.org/2000/svg" style="display:none;"><symbol id="1660619985610" viewBox="0 0 61 61"><path d="M58.616 57.867a2.338 2.338 0 0 1-1.991 1.09H4.929a2.338 2.338 0 0 1-1.99-1.08 2.019 2.019 0 0 1 0-2.151 2.357 2.357 0 0 1 1.99-1.099h51.649a2.339 2.339 0 0 1 2 1.08 2 2 0 0 1 .038 2.16zm-26.37-16.753a15.965 15.965 0 0 1-8.686 4.029l-5.634.46c-2.714.225-4.207.347-4.489.347a2.171 2.171 0 0 1-1.54-.63c-.742-.732-.742-.732-.3-6.019l.47-5.634a15.964 15.964 0 0 1 4.028-8.686l20.66-20.613a6.649 6.649 0 0 1 9.146 0l6.977 6.977a6.451 6.451 0 0 1 0 9.119l-20.631 20.65zm17.58-26.717L42.849 7.42a2.179 2.179 0 0 0-3.043 0l-20.66 20.66a11.475 11.475 0 0 0-2.817 6l-.47 5.635-.15 1.812 1.813-.15 5.635-.47a11.541 11.541 0 0 0 6-2.817l20.66-20.603a2.178 2.178 0 0 0 0-3.043l.009-.047z" fill="#fff"/></symbol><symbol id="1660619973144" viewBox="0 0 59 57"><g clip-path="url(#clip0_5_494)" fill="#fff"><path d="M3.465 17.7c-1.452 0-2.42-1.092-2.42-2.73V3.238c0-1.638.968-2.73 2.42-2.73h14.762c1.452 0 2.42 1.092 2.42 2.73 0 1.637-.968 2.729-2.42 2.729H5.885v9.005c0 1.637-.968 2.729-2.42 2.729zm53.241 38.476H41.944c-1.452 0-2.42-1.091-2.42-2.729 0-1.637.968-2.729 2.42-2.729h12.342v-9.005c0-1.637.968-2.729 2.42-2.729s2.42 1.092 2.42 2.73v11.733c0 1.365-.968 2.73-2.42 2.73zm-38.479 0H3.465c-1.452 0-2.42-1.091-2.42-2.729V41.713c0-1.637.968-2.729 2.42-2.729s2.42 1.092 2.42 2.73v9.005h12.342c1.452 0 2.42 1.091 2.42 2.728 0 1.638-.968 2.73-2.42 2.73zM56.707 17.7c-1.453 0-2.421-1.092-2.421-2.73V5.967H41.944c-1.452 0-2.42-1.092-2.42-2.73 0-1.637.968-2.728 2.42-2.728h14.762c1.452 0 2.42 1.091 2.42 2.729V14.97c0 1.637-.968 2.729-2.42 2.729zM45.298 26.978H18.01c-1.637 0-2.729-1.092-2.729-2.73 0-1.637 1.092-2.728 2.73-2.728h27.287c1.638 0 2.73 1.091 2.73 2.729 0 1.637-1.092 2.729-2.73 2.729zm0 8.186H18.01c-1.637 0-2.729-1.091-2.729-2.729 0-1.637 1.092-2.729 2.73-2.729h27.287c1.638 0 2.73 1.092 2.73 2.73 0 1.637-1.092 2.728-2.73 2.728zM36.02 18.518H18.01c-1.637 0-2.729-1.091-2.729-2.729 0-1.637 1.092-2.728 2.73-2.728h18.01c1.637 0 2.728 1.091 2.728 2.728 0 1.638-1.364 2.73-2.729 2.73zM21.83 43.624h-3.82c-1.637 0-2.729-1.092-2.729-2.73 0-1.637 1.092-2.728 2.73-2.728h3.82c1.637 0 2.728 1.091 2.728 2.729 0 1.637-1.364 2.729-2.729 2.729z"/></g><defs><clipPath id="clip0_5_494"><path fill="#fff" transform="translate(.716 .596)" d="M0 0h58v56H0z"/></clipPath></defs></symbol><symbol id="1660619959945" viewBox="0 0 80 72"><path fill-rule="evenodd" clip-rule="evenodd" d="M55.984 71.196c-3.487 0-7.846-2.035-12.497-5.958A53.69 53.69 0 0 1 40 62.063a53.715 53.715 0 0 1-3.487 3.175c-4.65 3.923-9.01 5.958-12.497 5.958-1.453 0-2.761-.291-3.924-1.018-5.313-3.085-5.572-11.528-2.923-21.364C7.264 46.176.039 41.699.039 35.594c0-6.093 7.197-10.565 17.072-13.204-2.642-9.843-2.335-18.293 2.981-21.38 4.069-2.325 9.881-.582 16.42 4.94a58.725 58.725 0 0 1 3.454 3.209 53.76 53.76 0 0 1 3.521-3.209c6.54-5.522 12.497-7.265 16.42-4.94 5.314 3.085 5.573 11.528 2.924 21.364 9.904 2.638 17.13 7.115 17.13 13.22 0 6.093-7.197 10.565-17.072 13.204 2.642 9.843 2.335 18.293-2.981 21.38-1.163.727-2.47 1.018-3.924 1.018zm2.617-49.806a89.65 89.65 0 0 0-9.624-1.378 88.382 88.382 0 0 0-6.053-7.697 46.889 46.889 0 0 1 3.324-3.023c3.924-3.196 7.266-4.94 9.736-4.94.727 0 1.308.145 1.744.436 2.841 1.636 3.183 8.016.873 16.602zm-21.634-9.052a48.649 48.649 0 0 0-3.36-3.046c-3.779-3.196-7.121-4.94-9.591-4.94-.727 0-1.308.145-1.89.436-2.844 1.637-3.183 8.03-.865 16.63a89.387 89.387 0 0 1 9.694-1.4 83.863 83.863 0 0 1 6.012-7.68zm-.406 7.33a79.078 79.078 0 0 1 3.383-4.162 76.655 76.655 0 0 1 3.393 4.16 100.067 100.067 0 0 0-6.776.003zm-3.227 4.524A98.842 98.842 0 0 1 40 23.969c2.252 0 4.441.075 6.555.215a100.365 100.365 0 0 1 3.471 5.598 98.147 98.147 0 0 1 3.11 5.812 98.115 98.115 0 0 1-3.11 5.813c-1.129 1.926-2.304 3.8-3.513 5.6-2.1.138-4.276.212-6.513.212-2.306 0-4.547-.078-6.707-.226a100.356 100.356 0 0 1-3.465-5.587 98.054 98.054 0 0 1-3.11-5.812 98.085 98.085 0 0 1 3.11-5.813c1.127-1.923 2.3-3.793 3.506-5.59zm-5.447.53c-1.867.24-3.654.532-5.348.868a79.7 79.7 0 0 0 1.948 5.111 102.8 102.8 0 0 1 1.708-3.1 97.017 97.017 0 0 1 1.692-2.878zm-5.848 10.924a88.191 88.191 0 0 1-3.666-9.095c-8.61 2.29-13.975 5.768-13.975 9.043 0 3.282 5.39 6.77 14.035 9.059a90.468 90.468 0 0 1 3.606-9.007zM21.26 49.77c-2.318 8.6-1.979 14.993.866 16.63 2.325 1.308 6.539-.29 11.48-4.504a46.986 46.986 0 0 0 3.354-3.053 83.888 83.888 0 0 1-6.006-7.673 89.388 89.388 0 0 1-9.694-1.4zm21.704 9.157a48.505 48.505 0 0 0 3.283 2.969c4.941 4.068 9.3 5.812 11.48 4.504 2.841-1.636 3.183-8.016.873-16.602a89.605 89.605 0 0 1-9.556 1.372 83.785 83.785 0 0 1-6.08 7.757zm.325-7.403a79.074 79.074 0 0 1-3.38 4.158 76.503 76.503 0 0 1-3.397-4.165 100.315 100.315 0 0 0 6.777.007zm-20.751-5.926a79.72 79.72 0 0 1 1.938-5.086 98.927 98.927 0 0 0 1.718 3.074c.551.976 1.115 1.936 1.692 2.88a79.989 79.989 0 0 1-5.348-.868zm32.903-15.074a98.81 98.81 0 0 0-1.637-2.922 98.822 98.822 0 0 0-1.72-2.883c1.827.234 3.577.518 5.24.845a79.563 79.563 0 0 1-1.884 4.96zm2.52 5.018a90.459 90.459 0 0 0 3.605-9.007c8.645 2.29 14.035 5.777 14.035 9.059 0 3.274-5.366 6.753-13.976 9.043a88.202 88.202 0 0 0-3.665-9.095zm-2.53 5.098c-.528.993-1.07 1.976-1.627 2.946a96.761 96.761 0 0 1-1.692 2.88 80.123 80.123 0 0 0 5.212-.842 79.61 79.61 0 0 0-1.893-4.984zm-23.424-5.046c0 4.36 3.633 7.992 7.992 7.992 4.36 0 7.992-3.633 7.992-7.992 0-4.36-3.633-7.992-7.992-7.992-4.36 0-7.992 3.633-7.992 7.992zm4.36 0A3.598 3.598 0 0 1 40 31.961a3.598 3.598 0 0 1 3.633 3.633A3.598 3.598 0 0 1 40 39.227a3.597 3.597 0 0 1-3.633-3.633z" fill="#000"/><path fill-rule="evenodd" clip-rule="evenodd" d="M55.984 71.196c-3.487 0-7.846-2.035-12.497-5.958A53.69 53.69 0 0 1 40 62.063a53.715 53.715 0 0 1-3.487 3.175c-4.65 3.923-9.01 5.958-12.497 5.958-1.453 0-2.761-.291-3.924-1.018-5.313-3.085-5.572-11.528-2.923-21.364C7.264 46.176.039 41.699.039 35.594c0-6.093 7.197-10.565 17.072-13.204-2.642-9.843-2.335-18.293 2.981-21.38 4.069-2.325 9.881-.582 16.42 4.94a58.725 58.725 0 0 1 3.454 3.209 53.76 53.76 0 0 1 3.521-3.209c6.54-5.522 12.497-7.265 16.42-4.94 5.314 3.085 5.573 11.528 2.924 21.364 9.904 2.638 17.13 7.115 17.13 13.22 0 6.093-7.197 10.565-17.072 13.204 2.642 9.843 2.335 18.293-2.981 21.38-1.163.727-2.47 1.018-3.924 1.018zm2.617-49.806a89.65 89.65 0 0 0-9.624-1.378 88.382 88.382 0 0 0-6.053-7.697 46.889 46.889 0 0 1 3.324-3.023c3.924-3.196 7.266-4.94 9.736-4.94.727 0 1.308.145 1.744.436 2.841 1.636 3.183 8.016.873 16.602zm-21.634-9.052a48.649 48.649 0 0 0-3.36-3.046c-3.779-3.196-7.121-4.94-9.591-4.94-.727 0-1.308.145-1.89.436-2.844 1.637-3.183 8.03-.865 16.63a89.387 89.387 0 0 1 9.694-1.4 83.863 83.863 0 0 1 6.012-7.68zm-.406 7.33a79.078 79.078 0 0 1 3.383-4.162 76.655 76.655 0 0 1 3.393 4.16 100.067 100.067 0 0 0-6.776.003zm-3.227 4.524A98.842 98.842 0 0 1 40 23.969c2.252 0 4.441.075 6.555.215a100.365 100.365 0 0 1 3.471 5.598 98.147 98.147 0 0 1 3.11 5.812 98.115 98.115 0 0 1-3.11 5.813c-1.129 1.926-2.304 3.8-3.513 5.6-2.1.138-4.276.212-6.513.212-2.306 0-4.547-.078-6.707-.226a100.356 100.356 0 0 1-3.465-5.587 98.054 98.054 0 0 1-3.11-5.812 98.085 98.085 0 0 1 3.11-5.813c1.127-1.923 2.3-3.793 3.506-5.59zm-5.447.53c-1.867.24-3.654.532-5.348.868a79.7 79.7 0 0 0 1.948 5.111 102.8 102.8 0 0 1 1.708-3.1 97.017 97.017 0 0 1 1.692-2.878zm-5.848 10.924a88.191 88.191 0 0 1-3.666-9.095c-8.61 2.29-13.975 5.768-13.975 9.043 0 3.282 5.39 6.77 14.035 9.059a90.468 90.468 0 0 1 3.606-9.007zM21.26 49.77c-2.318 8.6-1.979 14.993.866 16.63 2.325 1.308 6.539-.29 11.48-4.504a46.986 46.986 0 0 0 3.354-3.053 83.888 83.888 0 0 1-6.006-7.673 89.388 89.388 0 0 1-9.694-1.4zm21.704 9.157a48.505 48.505 0 0 0 3.283 2.969c4.941 4.068 9.3 5.812 11.48 4.504 2.841-1.636 3.183-8.016.873-16.602a89.605 89.605 0 0 1-9.556 1.372 83.785 83.785 0 0 1-6.08 7.757zm.325-7.403a79.074 79.074 0 0 1-3.38 4.158 76.503 76.503 0 0 1-3.397-4.165 100.315 100.315 0 0 0 6.777.007zm-20.751-5.926a79.72 79.72 0 0 1 1.938-5.086 98.927 98.927 0 0 0 1.718 3.074c.551.976 1.115 1.936 1.692 2.88a79.989 79.989 0 0 1-5.348-.868zm32.903-15.074a98.81 98.81 0 0 0-1.637-2.922 98.822 98.822 0 0 0-1.72-2.883c1.827.234 3.577.518 5.24.845a79.563 79.563 0 0 1-1.884 4.96zm2.52 5.018a90.459 90.459 0 0 0 3.605-9.007c8.645 2.29 14.035 5.777 14.035 9.059 0 3.274-5.366 6.753-13.976 9.043a88.202 88.202 0 0 0-3.665-9.095zm-2.53 5.098c-.528.993-1.07 1.976-1.627 2.946a96.761 96.761 0 0 1-1.692 2.88 80.123 80.123 0 0 0 5.212-.842 79.61 79.61 0 0 0-1.893-4.984zm-23.424-5.046c0 4.36 3.633 7.992 7.992 7.992 4.36 0 7.992-3.633 7.992-7.992 0-4.36-3.633-7.992-7.992-7.992-4.36 0-7.992 3.633-7.992 7.992zm4.36 0A3.598 3.598 0 0 1 40 31.961a3.598 3.598 0 0 1 3.633 3.633A3.598 3.598 0 0 1 40 39.227a3.597 3.597 0 0 1-3.633-3.633z" fill="url(#paint0_linear_5_94)"/><defs><linearGradient id="paint0_linear_5_94" x1="79.961" y1=".006" x2=".039" y2=".006" gradientUnits="userSpaceOnUse"><stop stop-color="#B3E5FC"/><stop offset="1" stop-color="#C8E6C9"/></linearGradient></defs></symbol><symbol id="1660619952414" viewBox="0 0 84 61"><path fill-rule="evenodd" clip-rule="evenodd" d="M22.52 26.451c.349.15.71.22 1.067.22 1.07 0 2.084-.636 2.526-1.692.592-1.411-.06-3.039-1.456-3.635-3-1.284-4.938-4.24-4.938-7.534 0-4.505 3.627-8.17 8.082-8.17 4.459 0 8.083 3.665 8.083 8.17 0 3.192-1.856 6.112-4.73 7.442-1.376.635-1.982 2.282-1.351 3.674.633 1.392 2.262 2.005 3.633 1.367 4.82-2.226 7.932-7.128 7.932-12.483C41.368 6.25 35.28.094 27.8.094S14.236 6.249 14.236 13.81c0 5.524 3.252 10.49 8.286 12.641zm3.537 28.927h.003c1.513 0 2.739-1.24 2.742-2.77.002-1.53-1.223-2.773-2.74-2.776l-18.7-.027a1.286 1.286 0 0 1-1.125-.594c-.143-.227-.269-.588-.003-1.161 2.753-5.948 6.92-14.926 24.432-13.69 1.519.148 2.821-1.042 2.928-2.57.107-1.528-1.03-2.853-2.541-2.958C9.79 27.32 4.24 39.274 1.203 45.837a6.646 6.646 0 0 0 .406 6.35 6.751 6.751 0 0 0 5.747 3.163l18.701.028zm27.264-20.046c-.356 0-.718-.069-1.067-.219-5.349-2.287-8.806-7.56-8.806-13.434 0-8.04 6.468-14.584 14.419-14.584 7.95 0 14.419 6.544 14.419 14.584 0 5.693-3.31 10.9-8.431 13.265-1.371.635-3 .025-3.633-1.367-.628-1.395-.022-3.039 1.354-3.674 3.175-1.466 5.226-4.694 5.226-8.224 0-4.985-4.006-9.039-8.935-9.039-4.927 0-8.936 4.054-8.936 9.04 0 3.64 2.145 6.906 5.46 8.326 1.395.596 2.047 2.224 1.455 3.635a2.739 2.739 0 0 1-2.525 1.691zm13.078 25.63h.003c1.513 0 2.742-1.24 2.742-2.77 0-1.534-1.226-2.773-2.74-2.776l-27.806-.028c-.351 0-.524-.191-.595-.305a.44.44 0 0 1-.03-.457c2.45-5.294 7.975-11.646 20.36-11.843 12.554-.186 17.465 6.397 19.453 11.962.022.055.068.188-.06.377a.704.704 0 0 1-.601.294h-4.017c-1.513 0-2.742 1.24-2.742 2.773 0 1.533 1.229 2.772 2.742 2.772h4.017a6.192 6.192 0 0 0 5.089-2.656 5.938 5.938 0 0 0 .729-5.446c-2.125-5.944-8.173-15.754-24.698-15.621-16.017.252-22.688 9.53-25.238 15.036a6.053 6.053 0 0 0 .368 5.784 6.131 6.131 0 0 0 5.217 2.876l27.807.027z" fill="#000"/><path fill-rule="evenodd" clip-rule="evenodd" d="M22.52 26.451c.349.15.71.22 1.067.22 1.07 0 2.084-.636 2.526-1.692.592-1.411-.06-3.039-1.456-3.635-3-1.284-4.938-4.24-4.938-7.534 0-4.505 3.627-8.17 8.082-8.17 4.459 0 8.083 3.665 8.083 8.17 0 3.192-1.856 6.112-4.73 7.442-1.376.635-1.982 2.282-1.351 3.674.633 1.392 2.262 2.005 3.633 1.367 4.82-2.226 7.932-7.128 7.932-12.483C41.368 6.25 35.28.094 27.8.094S14.236 6.249 14.236 13.81c0 5.524 3.252 10.49 8.286 12.641zm3.537 28.927h.003c1.513 0 2.739-1.24 2.742-2.77.002-1.53-1.223-2.773-2.74-2.776l-18.7-.027a1.286 1.286 0 0 1-1.125-.594c-.143-.227-.269-.588-.003-1.161 2.753-5.948 6.92-14.926 24.432-13.69 1.519.148 2.821-1.042 2.928-2.57.107-1.528-1.03-2.853-2.541-2.958C9.79 27.32 4.24 39.274 1.203 45.837a6.646 6.646 0 0 0 .406 6.35 6.751 6.751 0 0 0 5.747 3.163l18.701.028zm27.264-20.046c-.356 0-.718-.069-1.067-.219-5.349-2.287-8.806-7.56-8.806-13.434 0-8.04 6.468-14.584 14.419-14.584 7.95 0 14.419 6.544 14.419 14.584 0 5.693-3.31 10.9-8.431 13.265-1.371.635-3 .025-3.633-1.367-.628-1.395-.022-3.039 1.354-3.674 3.175-1.466 5.226-4.694 5.226-8.224 0-4.985-4.006-9.039-8.935-9.039-4.927 0-8.936 4.054-8.936 9.04 0 3.64 2.145 6.906 5.46 8.326 1.395.596 2.047 2.224 1.455 3.635a2.739 2.739 0 0 1-2.525 1.691zm13.078 25.63h.003c1.513 0 2.742-1.24 2.742-2.77 0-1.534-1.226-2.773-2.74-2.776l-27.806-.028c-.351 0-.524-.191-.595-.305a.44.44 0 0 1-.03-.457c2.45-5.294 7.975-11.646 20.36-11.843 12.554-.186 17.465 6.397 19.453 11.962.022.055.068.188-.06.377a.704.704 0 0 1-.601.294h-4.017c-1.513 0-2.742 1.24-2.742 2.773 0 1.533 1.229 2.772 2.742 2.772h4.017a6.192 6.192 0 0 0 5.089-2.656 5.938 5.938 0 0 0 .729-5.446c-2.125-5.944-8.173-15.754-24.698-15.621-16.017.252-22.688 9.53-25.238 15.036a6.053 6.053 0 0 0 .368 5.784 6.131 6.131 0 0 0 5.217 2.876l27.807.027z" fill="url(#paint0_linear_5_86)"/><defs><linearGradient id="paint0_linear_5_86" x1="83.298" y1=".094" x2=".583" y2=".094" gradientUnits="userSpaceOnUse"><stop stop-color="#B3E5FC"/><stop offset="1" stop-color="#C8E6C9"/></linearGradient></defs></symbol><symbol id="1660619945936" viewBox="0 0 70 70"><path d="M54.01 11.988L64.865 18.5a9.374 9.374 0 0 1 4.552 8.04V60.5a9.375 9.375 0 0 1-9.375 9.375h-50A9.375 9.375 0 0 1 .667 60.5V26.54a9.375 9.375 0 0 1 4.552-8.042l10.854-6.51 3.215 5.358-10.855 6.512a3.126 3.126 0 0 0-1.516 2.684V60.5a3.125 3.125 0 0 0 3.125 3.125h50a3.125 3.125 0 0 0 3.125-3.125V26.54a3.125 3.125 0 0 0-1.517-2.682l-10.854-6.512 3.214-5.358zM35.042.083l12.5 7.5-5.323 11.25h-.181l3.42 28.62-10.416 8.88-10.417-8.88 3.419-28.62h-.146l-5.356-11.25 12.5-7.5zm1.502 18.75h-3.006l-3.15 26.365 4.654 3.967 4.654-3.967-3.154-26.365h.002zm-1.502-11.46l-4.417 2.65 1.219 2.56h6.416l1.209-2.554-4.427-2.654v-.002z" fill="#000"/><path d="M54.01 11.988L64.865 18.5a9.374 9.374 0 0 1 4.552 8.04V60.5a9.375 9.375 0 0 1-9.375 9.375h-50A9.375 9.375 0 0 1 .667 60.5V26.54a9.375 9.375 0 0 1 4.552-8.042l10.854-6.51 3.215 5.358-10.855 6.512a3.126 3.126 0 0 0-1.516 2.684V60.5a3.125 3.125 0 0 0 3.125 3.125h50a3.125 3.125 0 0 0 3.125-3.125V26.54a3.125 3.125 0 0 0-1.517-2.682l-10.854-6.512 3.214-5.358zM35.042.083l12.5 7.5-5.323 11.25h-.181l3.42 28.62-10.416 8.88-10.417-8.88 3.419-28.62h-.146l-5.356-11.25 12.5-7.5zm1.502 18.75h-3.006l-3.15 26.365 4.654 3.967 4.654-3.967-3.154-26.365h.002zm-1.502-11.46l-4.417 2.65 1.219 2.56h6.416l1.209-2.554-4.427-2.654v-.002z" fill="url(#paint0_linear_5_39)"/><defs><linearGradient id="paint0_linear_5_39" x1="69.417" y1=".083" x2=".667" y2=".083" gradientUnits="userSpaceOnUse"><stop stop-color="#B3E5FC"/><stop offset="1" stop-color="#C8E6C9"/></linearGradient></defs></symbol><symbol id="1660619917679" viewBox="0 0 74 74"><path fill-rule="evenodd" clip-rule="evenodd" d="M36.963 73.927C16.585 73.927 0 57.342 0 36.963 0 16.585 16.585 0 36.963 0c8.069 0 15.739 2.557 22.172 7.388a2.846 2.846 0 0 1-3.42 4.549A31.014 31.014 0 0 0 44.279 6.55a46.155 46.155 0 0 1 8.979 17.539 46.32 46.32 0 0 1 1.087 5.464l13.005.005a31.08 31.08 0 0 0-1.359-4.24 2.848 2.848 0 0 1 1.577-3.703 2.847 2.847 0 0 1 3.703 1.577 36.789 36.789 0 0 1 2.656 13.771c0 20.387-16.577 36.964-36.964 36.964zM24.915 34.09l25.268.01a42.54 42.54 0 0 1-.013 3.85 41.547 41.547 0 0 1-.915 6.9 51.942 51.942 0 0 0-13.487-1.777h-.017a52.087 52.087 0 0 0-10.52 1.067 41.94 41.94 0 0 1-.478-6.082v-.274c0-1.238.054-2.47.162-3.694zm-4.565-.002l-14.54-.005a31.54 31.54 0 0 0-.132 2.888c0 4.885 1.125 9.513 3.13 13.636a51.545 51.545 0 0 1 11.997-5.35 46.863 46.863 0 0 1-.6-7.19v-.291c0-1.235.048-2.465.145-3.688zm.59-4.549l-14.37-.005C9.607 17.132 20.056 7.61 32.938 5.95a46.355 46.355 0 0 0-10.26 16.884 46.249 46.249 0 0 0-1.737 6.705zm4.632.002c.357-1.77.829-3.516 1.414-5.229 2.158-6.292 5.86-12.053 10.7-16.668.262-.25.533-.5.806-.748.213.219.413.43.605.64 4.648 5.006 8.026 11.132 9.753 17.706a40.67 40.67 0 0 1 .894 4.308l-24.172-.009zm-3.813 20.18a46.962 46.962 0 0 0-10.667 4.823c4.605 6.757 11.786 11.623 20.12 13.176a45.873 45.873 0 0 1-7.53-12.322 45.747 45.747 0 0 1-1.923-5.678zM36.486 66.77a41.405 41.405 0 0 0 9.566-12.724 41.377 41.377 0 0 0 1.983-4.818 47.568 47.568 0 0 0-12.267-1.607h-.017a47.172 47.172 0 0 0-9.586.97 41.516 41.516 0 0 0 10.322 18.179zM54.72 38.175a46.2 46.2 0 0 1-1.107 8.054 51.567 51.567 0 0 1 10.895 5.54 31.09 31.09 0 0 0 3.725-14.797c0-.962-.043-1.917-.128-2.865l-13.361-.005a46.616 46.616 0 0 1-.024 4.073zm7.346 17.428a46.978 46.978 0 0 0-9.693-4.985 45.854 45.854 0 0 1-2.227 5.42 45.939 45.939 0 0 1-8.244 11.82c8.227-1.311 15.393-5.842 20.164-12.255zM59.932 16.91a3.279 3.279 0 1 0 6.557 0 3.279 3.279 0 0 0-6.557 0z" fill="#000"/><path fill-rule="evenodd" clip-rule="evenodd" d="M36.963 73.927C16.585 73.927 0 57.342 0 36.963 0 16.585 16.585 0 36.963 0c8.069 0 15.739 2.557 22.172 7.388a2.846 2.846 0 0 1-3.42 4.549A31.014 31.014 0 0 0 44.279 6.55a46.155 46.155 0 0 1 8.979 17.539 46.32 46.32 0 0 1 1.087 5.464l13.005.005a31.08 31.08 0 0 0-1.359-4.24 2.848 2.848 0 0 1 1.577-3.703 2.847 2.847 0 0 1 3.703 1.577 36.789 36.789 0 0 1 2.656 13.771c0 20.387-16.577 36.964-36.964 36.964zM24.915 34.09l25.268.01a42.54 42.54 0 0 1-.013 3.85 41.547 41.547 0 0 1-.915 6.9 51.942 51.942 0 0 0-13.487-1.777h-.017a52.087 52.087 0 0 0-10.52 1.067 41.94 41.94 0 0 1-.478-6.082v-.274c0-1.238.054-2.47.162-3.694zm-4.565-.002l-14.54-.005a31.54 31.54 0 0 0-.132 2.888c0 4.885 1.125 9.513 3.13 13.636a51.545 51.545 0 0 1 11.997-5.35 46.863 46.863 0 0 1-.6-7.19v-.291c0-1.235.048-2.465.145-3.688zm.59-4.549l-14.37-.005C9.607 17.132 20.056 7.61 32.938 5.95a46.355 46.355 0 0 0-10.26 16.884 46.249 46.249 0 0 0-1.737 6.705zm4.632.002c.357-1.77.829-3.516 1.414-5.229 2.158-6.292 5.86-12.053 10.7-16.668.262-.25.533-.5.806-.748.213.219.413.43.605.64 4.648 5.006 8.026 11.132 9.753 17.706a40.67 40.67 0 0 1 .894 4.308l-24.172-.009zm-3.813 20.18a46.962 46.962 0 0 0-10.667 4.823c4.605 6.757 11.786 11.623 20.12 13.176a45.873 45.873 0 0 1-7.53-12.322 45.747 45.747 0 0 1-1.923-5.678zM36.486 66.77a41.405 41.405 0 0 0 9.566-12.724 41.377 41.377 0 0 0 1.983-4.818 47.568 47.568 0 0 0-12.267-1.607h-.017a47.172 47.172 0 0 0-9.586.97 41.516 41.516 0 0 0 10.322 18.179zM54.72 38.175a46.2 46.2 0 0 1-1.107 8.054 51.567 51.567 0 0 1 10.895 5.54 31.09 31.09 0 0 0 3.725-14.797c0-.962-.043-1.917-.128-2.865l-13.361-.005a46.616 46.616 0 0 1-.024 4.073zm7.346 17.428a46.978 46.978 0 0 0-9.693-4.985 45.854 45.854 0 0 1-2.227 5.42 45.939 45.939 0 0 1-8.244 11.82c8.227-1.311 15.393-5.842 20.164-12.255zM59.932 16.91a3.279 3.279 0 1 0 6.557 0 3.279 3.279 0 0 0-6.557 0z" fill="url(#paint0_linear_5_55)"/><defs><linearGradient id="paint0_linear_5_55" x1="73.927" x2="0" gradientUnits="userSpaceOnUse"><stop stop-color="#B3E5FC"/><stop offset="1" stop-color="#C8E6C9"/></linearGradient></defs></symbol></svg>
