<svg width="80" height="72" viewBox="0 0 80 72" fill="none" xmlns="http://www.w3.org/2000/svg">
<path fill-rule="evenodd" clip-rule="evenodd" d="M55.9843 71.1956C52.4968 71.1956 48.1375 69.1612 43.4875 65.2378C42.3324 64.2799 41.1663 63.2182 40 62.0634C38.8336 63.2182 37.6676 64.2799 36.5125 65.2378C31.8625 69.1612 27.5031 71.1956 24.0156 71.1956C22.5625 71.1956 21.2547 70.905 20.0922 70.1784C14.7786 67.0931 14.5196 58.6501 17.1688 48.814C7.2645 46.1761 0.039032 41.6992 0.039032 35.594C0.039032 29.5008 7.23628 25.0294 17.1107 22.3896C14.4687 12.5469 14.7758 4.09655 20.0921 1.00965C24.1609 -1.31535 29.9734 0.428403 36.5125 5.95028C37.6563 6.92672 38.8108 7.99958 39.9658 9.15856C41.1436 7.99058 42.3211 6.91752 43.4875 5.95028C50.0265 0.428403 55.9843 -1.31535 59.9078 1.00965C65.2213 4.09493 65.4803 12.538 62.8312 22.3741C72.7354 25.0119 79.9609 29.4888 79.9609 35.594C79.9609 41.6873 72.7637 46.1586 62.8892 48.7985C65.5312 58.6412 65.2241 67.0915 59.9078 70.1784C58.7453 70.905 57.4375 71.1956 55.9843 71.1956ZM58.6015 21.39C55.5299 20.7709 52.2845 20.3099 48.9773 20.0123C47.0264 17.2363 44.9887 14.6506 42.9239 12.315C44.0325 11.2111 45.1432 10.1993 46.2484 9.29247C50.1718 6.09559 53.514 4.35184 55.9843 4.35184C56.7109 4.35184 57.2922 4.49715 57.7281 4.78778C60.5694 6.4237 60.9109 12.8042 58.6015 21.39ZM36.9672 12.3377C35.8464 11.2276 34.7235 10.2092 33.6062 9.29247C29.8281 6.09559 26.4859 4.35184 24.0156 4.35184C23.289 4.35184 22.7078 4.49715 22.1265 4.78778C19.2821 6.42547 18.9429 12.818 21.2607 21.4179C24.3519 20.789 27.6215 20.3207 30.9548 20.0185C32.892 17.2342 34.9157 14.6543 36.9672 12.3377ZM36.5611 19.6689C37.6736 18.2044 38.804 16.8121 39.9439 15.5062C41.0875 16.8086 42.2215 18.1987 43.3375 19.6655C42.2234 19.6283 41.1095 19.6096 40 19.6096C38.8567 19.6096 37.7089 19.6295 36.5611 19.6689ZM33.3343 24.1917C35.482 24.0464 37.7087 23.969 40 23.969C42.2519 23.969 44.4415 24.0438 46.555 24.1843C47.7489 25.9732 48.91 27.844 50.0265 29.7815C51.16 31.7409 52.1961 33.684 53.1358 35.594C52.1961 37.504 51.16 39.4472 50.0265 41.4065C48.8971 43.3333 47.722 45.2069 46.5135 47.0065C44.4129 47.1452 42.2372 47.219 40 47.219C37.694 47.219 35.4533 47.1406 33.2928 46.9935C32.1013 45.2077 30.9425 43.3404 29.8281 41.4065C28.6946 39.4472 27.6585 37.504 26.7189 35.594C27.6585 33.684 28.6946 31.7409 29.8281 29.7815C30.9554 27.8584 32.1282 25.9882 33.3343 24.1917ZM27.8867 24.7227C26.0199 24.9626 24.2333 25.2544 22.5386 25.5904C23.102 27.2408 23.7512 28.9493 24.4871 30.701C25.0398 29.6563 25.6099 28.6217 26.1953 27.6018C26.7461 26.6262 27.3105 25.6659 27.8867 24.7227ZM22.0388 35.646C20.6208 32.6091 19.3815 29.5436 18.3735 26.5513C9.76383 28.8407 4.39841 32.3195 4.39841 35.594C4.39841 38.876 9.78847 42.3633 18.4328 44.6525C19.43 41.6893 20.6498 38.6543 22.0388 35.646ZM21.2607 49.7701C18.943 58.3701 19.2821 64.7626 22.1265 66.4003C24.4515 67.7081 28.6656 66.1097 33.6062 61.8956C34.7214 60.9806 35.8421 59.9587 36.9608 58.8432C34.9115 56.5284 32.8899 53.951 30.9547 51.1696C27.6215 50.8673 24.3519 50.3991 21.2607 49.7701ZM42.9649 58.927C44.0599 60.0073 45.1569 61 46.2484 61.8956C51.189 65.9643 55.5484 67.7081 57.7281 66.4003C60.5694 64.7644 60.9109 58.3839 58.6015 49.7981C55.5509 50.4129 52.3289 50.8718 49.0452 51.1696C47.0866 53.9846 45.0396 56.5906 42.9649 58.927ZM43.2898 51.5241C42.1785 52.9868 41.0493 54.3775 39.9108 55.6818C38.7658 54.378 37.6304 52.9862 36.5133 51.5175C37.6771 51.558 38.8409 51.5784 40 51.5784C41.0937 51.5784 42.1916 51.5602 43.2898 51.5241ZM22.5386 45.5977C23.0994 43.9549 23.7452 42.2548 24.4768 40.5116C25.0322 41.548 25.6057 42.5743 26.1953 43.5862C26.746 44.5619 27.3104 45.5222 27.8866 46.4653C26.0199 46.2254 24.2333 45.9336 22.5386 45.5977ZM55.4415 30.5244C54.9116 29.5397 54.3654 28.5642 53.8046 27.6018C53.2449 26.6262 52.671 25.6646 52.085 24.7191C53.912 24.9533 55.6624 25.2372 57.3252 25.5635C56.7785 27.1668 56.1509 28.8249 55.4415 30.5244ZM57.9611 35.542C59.3501 32.5338 60.5699 29.4987 61.5671 26.5355C70.2115 28.8247 75.6015 32.312 75.6015 35.594C75.6015 38.8685 70.2361 42.3474 61.6264 44.6368C60.6184 41.6445 59.3791 38.579 57.9611 35.542ZM55.4317 40.6402C54.9044 41.6329 54.3614 42.6162 53.8047 43.5862C53.2539 44.5619 52.6895 45.5222 52.1133 46.4653C53.9301 46.2318 55.671 45.9492 57.3252 45.6245C56.776 44.0139 56.1451 42.3479 55.4317 40.6402ZM32.0078 35.594C32.0078 39.9534 35.6406 43.5862 40 43.5862C44.3593 43.5862 47.9922 39.9534 47.9922 35.594C47.9922 31.2346 44.3593 27.6018 40 27.6018C35.6406 27.6018 32.0078 31.2346 32.0078 35.594ZM36.3672 35.594C36.3672 33.5597 37.9656 31.9612 40 31.9612C42.0343 31.9612 43.6328 33.5597 43.6328 35.594C43.6328 37.6284 42.0343 39.2268 40 39.2268C37.9656 39.2268 36.3672 37.6284 36.3672 35.594Z" fill="black"/>
<path fill-rule="evenodd" clip-rule="evenodd" d="M55.9843 71.1956C52.4968 71.1956 48.1375 69.1612 43.4875 65.2378C42.3324 64.2799 41.1663 63.2182 40 62.0634C38.8336 63.2182 37.6676 64.2799 36.5125 65.2378C31.8625 69.1612 27.5031 71.1956 24.0156 71.1956C22.5625 71.1956 21.2547 70.905 20.0922 70.1784C14.7786 67.0931 14.5196 58.6501 17.1688 48.814C7.2645 46.1761 0.039032 41.6992 0.039032 35.594C0.039032 29.5008 7.23628 25.0294 17.1107 22.3896C14.4687 12.5469 14.7758 4.09655 20.0921 1.00965C24.1609 -1.31535 29.9734 0.428403 36.5125 5.95028C37.6563 6.92672 38.8108 7.99958 39.9658 9.15856C41.1436 7.99058 42.3211 6.91752 43.4875 5.95028C50.0265 0.428403 55.9843 -1.31535 59.9078 1.00965C65.2213 4.09493 65.4803 12.538 62.8312 22.3741C72.7354 25.0119 79.9609 29.4888 79.9609 35.594C79.9609 41.6873 72.7637 46.1586 62.8892 48.7985C65.5312 58.6412 65.2241 67.0915 59.9078 70.1784C58.7453 70.905 57.4375 71.1956 55.9843 71.1956ZM58.6015 21.39C55.5299 20.7709 52.2845 20.3099 48.9773 20.0123C47.0264 17.2363 44.9887 14.6506 42.9239 12.315C44.0325 11.2111 45.1432 10.1993 46.2484 9.29247C50.1718 6.09559 53.514 4.35184 55.9843 4.35184C56.7109 4.35184 57.2922 4.49715 57.7281 4.78778C60.5694 6.4237 60.9109 12.8042 58.6015 21.39ZM36.9672 12.3377C35.8464 11.2276 34.7235 10.2092 33.6062 9.29247C29.8281 6.09559 26.4859 4.35184 24.0156 4.35184C23.289 4.35184 22.7078 4.49715 22.1265 4.78778C19.2821 6.42547 18.9429 12.818 21.2607 21.4179C24.3519 20.789 27.6215 20.3207 30.9548 20.0185C32.892 17.2342 34.9157 14.6543 36.9672 12.3377ZM36.5611 19.6689C37.6736 18.2044 38.804 16.8121 39.9439 15.5062C41.0875 16.8086 42.2215 18.1987 43.3375 19.6655C42.2234 19.6283 41.1095 19.6096 40 19.6096C38.8567 19.6096 37.7089 19.6295 36.5611 19.6689ZM33.3343 24.1917C35.482 24.0464 37.7087 23.969 40 23.969C42.2519 23.969 44.4415 24.0438 46.555 24.1843C47.7489 25.9732 48.91 27.844 50.0265 29.7815C51.16 31.7409 52.1961 33.684 53.1358 35.594C52.1961 37.504 51.16 39.4472 50.0265 41.4065C48.8971 43.3333 47.722 45.2069 46.5135 47.0065C44.4129 47.1452 42.2372 47.219 40 47.219C37.694 47.219 35.4533 47.1406 33.2928 46.9935C32.1013 45.2077 30.9425 43.3404 29.8281 41.4065C28.6946 39.4472 27.6585 37.504 26.7189 35.594C27.6585 33.684 28.6946 31.7409 29.8281 29.7815C30.9554 27.8584 32.1282 25.9882 33.3343 24.1917ZM27.8867 24.7227C26.0199 24.9626 24.2333 25.2544 22.5386 25.5904C23.102 27.2408 23.7512 28.9493 24.4871 30.701C25.0398 29.6563 25.6099 28.6217 26.1953 27.6018C26.7461 26.6262 27.3105 25.6659 27.8867 24.7227ZM22.0388 35.646C20.6208 32.6091 19.3815 29.5436 18.3735 26.5513C9.76383 28.8407 4.39841 32.3195 4.39841 35.594C4.39841 38.876 9.78847 42.3633 18.4328 44.6525C19.43 41.6893 20.6498 38.6543 22.0388 35.646ZM21.2607 49.7701C18.943 58.3701 19.2821 64.7626 22.1265 66.4003C24.4515 67.7081 28.6656 66.1097 33.6062 61.8956C34.7214 60.9806 35.8421 59.9587 36.9608 58.8432C34.9115 56.5284 32.8899 53.951 30.9547 51.1696C27.6215 50.8673 24.3519 50.3991 21.2607 49.7701ZM42.9649 58.927C44.0599 60.0073 45.1569 61 46.2484 61.8956C51.189 65.9643 55.5484 67.7081 57.7281 66.4003C60.5694 64.7644 60.9109 58.3839 58.6015 49.7981C55.5509 50.4129 52.3289 50.8718 49.0452 51.1696C47.0866 53.9846 45.0396 56.5906 42.9649 58.927ZM43.2898 51.5241C42.1785 52.9868 41.0493 54.3775 39.9108 55.6818C38.7658 54.378 37.6304 52.9862 36.5133 51.5175C37.6771 51.558 38.8409 51.5784 40 51.5784C41.0937 51.5784 42.1916 51.5602 43.2898 51.5241ZM22.5386 45.5977C23.0994 43.9549 23.7452 42.2548 24.4768 40.5116C25.0322 41.548 25.6057 42.5743 26.1953 43.5862C26.746 44.5619 27.3104 45.5222 27.8866 46.4653C26.0199 46.2254 24.2333 45.9336 22.5386 45.5977ZM55.4415 30.5244C54.9116 29.5397 54.3654 28.5642 53.8046 27.6018C53.2449 26.6262 52.671 25.6646 52.085 24.7191C53.912 24.9533 55.6624 25.2372 57.3252 25.5635C56.7785 27.1668 56.1509 28.8249 55.4415 30.5244ZM57.9611 35.542C59.3501 32.5338 60.5699 29.4987 61.5671 26.5355C70.2115 28.8247 75.6015 32.312 75.6015 35.594C75.6015 38.8685 70.2361 42.3474 61.6264 44.6368C60.6184 41.6445 59.3791 38.579 57.9611 35.542ZM55.4317 40.6402C54.9044 41.6329 54.3614 42.6162 53.8047 43.5862C53.2539 44.5619 52.6895 45.5222 52.1133 46.4653C53.9301 46.2318 55.671 45.9492 57.3252 45.6245C56.776 44.0139 56.1451 42.3479 55.4317 40.6402ZM32.0078 35.594C32.0078 39.9534 35.6406 43.5862 40 43.5862C44.3593 43.5862 47.9922 39.9534 47.9922 35.594C47.9922 31.2346 44.3593 27.6018 40 27.6018C35.6406 27.6018 32.0078 31.2346 32.0078 35.594ZM36.3672 35.594C36.3672 33.5597 37.9656 31.9612 40 31.9612C42.0343 31.9612 43.6328 33.5597 43.6328 35.594C43.6328 37.6284 42.0343 39.2268 40 39.2268C37.9656 39.2268 36.3672 37.6284 36.3672 35.594Z" fill="url(#paint0_linear_5_94)"/>
<defs>
<linearGradient id="paint0_linear_5_94" x1="79.9609" y1="0.00634003" x2="0.039032" y2="0.00634003" gradientUnits="userSpaceOnUse">
<stop stop-color="#B3E5FC"/>
<stop offset="1" stop-color="#C8E6C9"/>
</linearGradient>
</defs>
</svg>
