<svg width="75" height="75" viewBox="0 0 75 75" fill="none" xmlns="http://www.w3.org/2000/svg">
<path fill-rule="evenodd" clip-rule="evenodd" d="M37.1581 74.7041C16.7797 74.7041 0.194702 58.1191 0.194702 37.7407C0.194702 17.3623 16.7797 0.777344 37.1581 0.777344C45.2264 0.777344 52.8964 3.33398 59.3295 8.16504C60.5829 9.11133 60.8402 10.8877 59.8939 12.1494C58.9476 13.4028 57.1713 13.6602 55.9095 12.7139C52.4564 10.124 48.5861 8.30864 44.4742 7.32694C48.6821 12.4446 51.7702 18.4573 53.4525 24.8662C53.9234 26.6602 54.2866 28.4852 54.5397 30.3302L67.5449 30.335C67.1949 28.8946 66.7415 27.479 66.1859 26.0947C65.5966 24.6338 66.3104 22.9819 67.7631 22.3926C69.224 21.8032 70.8759 22.5171 71.4652 23.9697C73.225 28.3525 74.1215 32.9844 74.1215 37.7407C74.1215 58.1274 57.5448 74.7041 37.1581 74.7041ZM25.1101 34.868L50.3774 34.8774C50.4021 35.4686 50.4144 36.0607 50.4144 36.6533C50.4144 37.3257 50.3978 38.023 50.3646 38.7285C50.2508 41.0681 49.9447 43.3718 49.4493 45.6277C48.9217 45.4862 48.3911 45.353 47.8578 45.228C43.9813 44.3149 39.9803 43.8501 35.9628 43.8501H35.9462C32.933 43.8501 29.9198 44.1074 26.9813 44.6221C26.4606 44.7131 25.9421 44.8118 25.4261 44.9182C25.1203 42.9171 24.9602 40.8869 24.9476 38.8364V38.5625C24.9476 37.3242 25.002 36.0919 25.1101 34.868ZM20.5449 34.8663L6.00458 34.8608C5.91713 35.812 5.87244 36.7754 5.87244 37.749C5.87244 42.6348 6.99791 47.2621 9.00327 51.3854C12.7858 49.0847 16.8008 47.2952 20.9993 46.0356C20.6159 43.6738 20.4156 41.2735 20.3988 38.8447V38.5542C20.3988 37.3193 20.4477 36.0893 20.5449 34.8663ZM21.1345 30.3177L6.7653 30.3123C9.8003 17.9095 20.2502 8.38708 33.1315 6.72848C28.5421 11.5482 25.0184 17.3464 22.8724 23.6128C22.1256 25.804 21.545 28.0437 21.1345 30.3177ZM25.7667 30.3194C26.1233 28.549 26.5953 26.8034 27.1805 25.0903C29.3387 18.7983 33.0409 13.0376 37.8802 8.42235C38.1426 8.17192 38.4135 7.92149 38.6869 7.67414C38.8998 7.8929 39.0998 8.10368 39.2914 8.31447C43.9398 13.3198 47.3182 19.4458 49.0448 26.02C49.4199 27.4352 49.718 28.8742 49.939 30.3284L25.7667 30.3194ZM21.9541 50.4986C18.2236 51.65 14.6525 53.2645 11.2867 55.3228C15.8917 62.0792 23.0727 66.9456 31.4058 68.498C28.2566 64.8064 25.73 60.6711 23.8768 56.1768C23.1091 54.319 22.4681 52.4244 21.9541 50.4986ZM36.6812 67.5481C36.9543 67.3021 37.224 67.0532 37.4901 66.8018C41.1259 63.3403 44.0726 59.3145 46.2474 54.8237C47.0124 53.2525 47.6736 51.645 48.2297 50.0064C47.7623 49.8813 47.2924 49.7633 46.8202 49.6523C43.2841 48.8223 39.6317 48.3989 35.9628 48.3989H35.9462C33.1903 48.3989 30.4428 48.6313 27.7616 49.1045C27.2922 49.1861 26.8248 49.2747 26.3595 49.3702C26.8205 51.0903 27.3934 52.7828 28.077 54.4419C29.9779 59.0488 32.6674 63.2407 36.0707 66.9014C36.2717 67.1193 36.4753 67.3349 36.6812 67.5481ZM54.9135 38.9527C54.779 41.6881 54.4093 44.3774 53.8071 47.0067C57.6306 48.4074 61.2768 50.2613 64.7014 52.5463C67.0778 48.1386 68.4271 43.0987 68.4271 37.749C68.4271 36.7878 68.3841 35.8323 68.2983 34.8841L54.9375 34.8791C54.9602 35.4723 54.9716 36.0666 54.9716 36.6616C54.9716 37.4087 54.955 38.1807 54.9135 38.9527ZM62.2594 56.3806C59.2088 54.3351 55.9656 52.6685 52.567 51.3951C51.9443 53.2391 51.2015 55.0478 50.3397 56.8159C48.2249 61.1764 45.4547 65.1424 42.096 68.6359C50.3226 67.3239 57.4888 62.7937 62.2594 56.3806ZM60.1263 17.686C60.1263 18.5556 60.4718 19.3896 61.0867 20.0045C61.7016 20.6194 62.5356 20.9648 63.4052 20.9648C64.2747 20.9648 65.1087 20.6194 65.7236 20.0045C66.3385 19.3896 66.684 18.5556 66.684 17.686C66.684 16.8164 66.3385 15.9825 65.7236 15.3676C65.1087 14.7527 64.2747 14.4072 63.4052 14.4072C62.5356 14.4072 61.7016 14.7527 61.0867 15.3676C60.4718 15.9825 60.1263 16.8164 60.1263 17.686Z" fill="black"/>
<path fill-rule="evenodd" clip-rule="evenodd" d="M37.1581 74.7041C16.7797 74.7041 0.194702 58.1191 0.194702 37.7407C0.194702 17.3623 16.7797 0.777344 37.1581 0.777344C45.2264 0.777344 52.8964 3.33398 59.3295 8.16504C60.5829 9.11133 60.8402 10.8877 59.8939 12.1494C58.9476 13.4028 57.1713 13.6602 55.9095 12.7139C52.4564 10.124 48.5861 8.30864 44.4742 7.32694C48.6821 12.4446 51.7702 18.4573 53.4525 24.8662C53.9234 26.6602 54.2866 28.4852 54.5397 30.3302L67.5449 30.335C67.1949 28.8946 66.7415 27.479 66.1859 26.0947C65.5966 24.6338 66.3104 22.9819 67.7631 22.3926C69.224 21.8032 70.8759 22.5171 71.4652 23.9697C73.225 28.3525 74.1215 32.9844 74.1215 37.7407C74.1215 58.1274 57.5448 74.7041 37.1581 74.7041ZM25.1101 34.868L50.3774 34.8774C50.4021 35.4686 50.4144 36.0607 50.4144 36.6533C50.4144 37.3257 50.3978 38.023 50.3646 38.7285C50.2508 41.0681 49.9447 43.3718 49.4493 45.6277C48.9217 45.4862 48.3911 45.353 47.8578 45.228C43.9813 44.3149 39.9803 43.8501 35.9628 43.8501H35.9462C32.933 43.8501 29.9198 44.1074 26.9813 44.6221C26.4606 44.7131 25.9421 44.8118 25.4261 44.9182C25.1203 42.9171 24.9602 40.8869 24.9476 38.8364V38.5625C24.9476 37.3242 25.002 36.0919 25.1101 34.868ZM20.5449 34.8663L6.00458 34.8608C5.91713 35.812 5.87244 36.7754 5.87244 37.749C5.87244 42.6348 6.99791 47.2621 9.00327 51.3854C12.7858 49.0847 16.8008 47.2952 20.9993 46.0356C20.6159 43.6738 20.4156 41.2735 20.3988 38.8447V38.5542C20.3988 37.3193 20.4477 36.0893 20.5449 34.8663ZM21.1345 30.3177L6.7653 30.3123C9.8003 17.9095 20.2502 8.38708 33.1315 6.72848C28.5421 11.5482 25.0184 17.3464 22.8724 23.6128C22.1256 25.804 21.545 28.0437 21.1345 30.3177ZM25.7667 30.3194C26.1233 28.549 26.5953 26.8034 27.1805 25.0903C29.3387 18.7983 33.0409 13.0376 37.8802 8.42235C38.1426 8.17192 38.4135 7.92149 38.6869 7.67414C38.8998 7.8929 39.0998 8.10368 39.2914 8.31447C43.9398 13.3198 47.3182 19.4458 49.0448 26.02C49.4199 27.4352 49.718 28.8742 49.939 30.3284L25.7667 30.3194ZM21.9541 50.4986C18.2236 51.65 14.6525 53.2645 11.2867 55.3228C15.8917 62.0792 23.0727 66.9456 31.4058 68.498C28.2566 64.8064 25.73 60.6711 23.8768 56.1768C23.1091 54.319 22.4681 52.4244 21.9541 50.4986ZM36.6812 67.5481C36.9543 67.3021 37.224 67.0532 37.4901 66.8018C41.1259 63.3403 44.0726 59.3145 46.2474 54.8237C47.0124 53.2525 47.6736 51.645 48.2297 50.0064C47.7623 49.8813 47.2924 49.7633 46.8202 49.6523C43.2841 48.8223 39.6317 48.3989 35.9628 48.3989H35.9462C33.1903 48.3989 30.4428 48.6313 27.7616 49.1045C27.2922 49.1861 26.8248 49.2747 26.3595 49.3702C26.8205 51.0903 27.3934 52.7828 28.077 54.4419C29.9779 59.0488 32.6674 63.2407 36.0707 66.9014C36.2717 67.1193 36.4753 67.3349 36.6812 67.5481ZM54.9135 38.9527C54.779 41.6881 54.4093 44.3774 53.8071 47.0067C57.6306 48.4074 61.2768 50.2613 64.7014 52.5463C67.0778 48.1386 68.4271 43.0987 68.4271 37.749C68.4271 36.7878 68.3841 35.8323 68.2983 34.8841L54.9375 34.8791C54.9602 35.4723 54.9716 36.0666 54.9716 36.6616C54.9716 37.4087 54.955 38.1807 54.9135 38.9527ZM62.2594 56.3806C59.2088 54.3351 55.9656 52.6685 52.567 51.3951C51.9443 53.2391 51.2015 55.0478 50.3397 56.8159C48.2249 61.1764 45.4547 65.1424 42.096 68.6359C50.3226 67.3239 57.4888 62.7937 62.2594 56.3806ZM60.1263 17.686C60.1263 18.5556 60.4718 19.3896 61.0867 20.0045C61.7016 20.6194 62.5356 20.9648 63.4052 20.9648C64.2747 20.9648 65.1087 20.6194 65.7236 20.0045C66.3385 19.3896 66.684 18.5556 66.684 17.686C66.684 16.8164 66.3385 15.9825 65.7236 15.3676C65.1087 14.7527 64.2747 14.4072 63.4052 14.4072C62.5356 14.4072 61.7016 14.7527 61.0867 15.3676C60.4718 15.9825 60.1263 16.8164 60.1263 17.686Z" fill="url(#paint0_linear_5_55)"/>
<defs>
<linearGradient id="paint0_linear_5_55" x1="74.1215" y1="0.777344" x2="0.194702" y2="0.777344" gradientUnits="userSpaceOnUse">
<stop stop-color="#B3E5FC"/>
<stop offset="1" stop-color="#C8E6C9"/>
</linearGradient>
</defs>
</svg>
