<svg width="84" height="61" viewBox="0 0 84 61" fill="none" xmlns="http://www.w3.org/2000/svg">
<path fill-rule="evenodd" clip-rule="evenodd" d="M22.5208 26.4513C22.869 26.601 23.2309 26.6703 23.5874 26.6703C24.6567 26.6703 25.6711 26.0354 26.1125 24.979C26.7048 23.5677 26.0522 21.9401 24.6567 21.3439C21.6572 20.0602 19.7187 17.1044 19.7187 13.8104C19.7187 9.30475 23.3461 5.6392 27.8015 5.6392C32.2596 5.6392 35.8842 9.30475 35.8842 13.8104C35.8842 17.0018 34.028 19.9215 31.1546 21.2524C29.7783 21.8874 29.1723 23.5344 29.8029 24.9263C30.4363 26.3182 32.0649 26.931 33.4358 26.2933C38.2558 24.0668 41.3677 19.1646 41.3677 13.8104C41.3677 6.2492 35.281 0.09375 27.8015 0.09375C20.3219 0.09375 14.2352 6.2492 14.2352 13.8104C14.2352 19.3337 17.4869 24.2997 22.5208 26.4513ZM26.0571 55.3778H26.0599C27.5733 55.3778 28.7989 54.1384 28.8016 52.6078C28.8044 51.0773 27.5788 49.8351 26.0626 49.8323L7.36106 49.8046C6.68385 49.8046 6.34935 49.3914 6.23694 49.2112C6.09437 48.9839 5.96825 48.6234 6.2342 48.0495C8.98693 42.102 13.1544 33.1239 30.666 34.3605C32.185 34.5075 33.4873 33.318 33.5943 31.7902C33.7012 30.2624 32.5633 28.937 31.0526 28.8317C9.79027 27.3205 4.24094 39.2738 1.20306 45.8368C0.251671 47.8942 0.402468 50.2676 1.60884 52.1864C2.8536 54.1661 5.0004 55.3473 7.35558 55.35L26.0571 55.3778ZM53.321 35.3323C52.9645 35.3323 52.6026 35.263 52.2544 35.1133C46.9052 32.8258 43.4479 27.5521 43.4479 21.6794C43.4479 13.6385 49.9157 7.09489 57.8668 7.09489C65.8179 7.09489 72.2857 13.6385 72.2857 21.6794C72.2857 27.3718 68.9764 32.579 63.8548 34.9442C62.4839 35.5791 60.8553 34.9691 60.222 33.5772C59.5941 32.1825 60.2 30.5383 61.5764 29.9033C64.7514 28.4366 66.8022 25.2091 66.8022 21.6794C66.8022 16.6941 62.7965 12.6403 57.8668 12.6403C52.9399 12.6403 48.9314 16.6941 48.9314 21.6794C48.9314 25.32 51.0755 28.5863 54.3903 30.0059C55.7858 30.6021 56.4384 32.2297 55.8461 33.641C55.4047 34.6974 54.3903 35.3323 53.321 35.3323ZM66.3992 60.9612H66.4019C67.9154 60.9612 69.1437 59.7218 69.1437 58.1913C69.1437 56.6579 67.9181 55.4185 66.4047 55.4158L38.5977 55.388C38.2468 55.388 38.074 55.1967 38.0027 55.083C37.8629 54.8612 37.9424 54.6893 37.9726 54.6255C40.4237 49.3324 45.9484 42.9801 58.3329 42.7832C70.8874 42.5974 75.7979 49.1799 77.7857 54.7448C77.8076 54.8002 77.8543 54.9333 77.7254 55.1218C77.6651 55.2106 77.4841 55.4158 77.125 55.4158H73.1083C71.5948 55.4158 70.3665 56.6552 70.3665 58.1885C70.3665 59.7218 71.5948 60.9612 73.1083 60.9612H77.125C79.1566 60.9612 81.0594 59.9686 82.2137 58.3049C83.3378 56.6884 83.601 54.7032 82.943 52.8593C80.8181 46.9146 74.7698 37.1047 58.2452 37.2378C42.2278 37.4901 35.5571 46.7676 33.0072 52.2743C32.1381 54.1486 32.2779 56.3086 33.3746 58.0582C34.5042 59.8577 36.4564 60.9307 38.5922 60.9335L66.3992 60.9612Z" fill="black"/>
<path fill-rule="evenodd" clip-rule="evenodd" d="M22.5208 26.4513C22.869 26.601 23.2309 26.6703 23.5874 26.6703C24.6567 26.6703 25.6711 26.0354 26.1125 24.979C26.7048 23.5677 26.0522 21.9401 24.6567 21.3439C21.6572 20.0602 19.7187 17.1044 19.7187 13.8104C19.7187 9.30475 23.3461 5.6392 27.8015 5.6392C32.2596 5.6392 35.8842 9.30475 35.8842 13.8104C35.8842 17.0018 34.028 19.9215 31.1546 21.2524C29.7783 21.8874 29.1723 23.5344 29.8029 24.9263C30.4363 26.3182 32.0649 26.931 33.4358 26.2933C38.2558 24.0668 41.3677 19.1646 41.3677 13.8104C41.3677 6.2492 35.281 0.09375 27.8015 0.09375C20.3219 0.09375 14.2352 6.2492 14.2352 13.8104C14.2352 19.3337 17.4869 24.2997 22.5208 26.4513ZM26.0571 55.3778H26.0599C27.5733 55.3778 28.7989 54.1384 28.8016 52.6078C28.8044 51.0773 27.5788 49.8351 26.0626 49.8323L7.36106 49.8046C6.68385 49.8046 6.34935 49.3914 6.23694 49.2112C6.09437 48.9839 5.96825 48.6234 6.2342 48.0495C8.98693 42.102 13.1544 33.1239 30.666 34.3605C32.185 34.5075 33.4873 33.318 33.5943 31.7902C33.7012 30.2624 32.5633 28.937 31.0526 28.8317C9.79027 27.3205 4.24094 39.2738 1.20306 45.8368C0.251671 47.8942 0.402468 50.2676 1.60884 52.1864C2.8536 54.1661 5.0004 55.3473 7.35558 55.35L26.0571 55.3778ZM53.321 35.3323C52.9645 35.3323 52.6026 35.263 52.2544 35.1133C46.9052 32.8258 43.4479 27.5521 43.4479 21.6794C43.4479 13.6385 49.9157 7.09489 57.8668 7.09489C65.8179 7.09489 72.2857 13.6385 72.2857 21.6794C72.2857 27.3718 68.9764 32.579 63.8548 34.9442C62.4839 35.5791 60.8553 34.9691 60.222 33.5772C59.5941 32.1825 60.2 30.5383 61.5764 29.9033C64.7514 28.4366 66.8022 25.2091 66.8022 21.6794C66.8022 16.6941 62.7965 12.6403 57.8668 12.6403C52.9399 12.6403 48.9314 16.6941 48.9314 21.6794C48.9314 25.32 51.0755 28.5863 54.3903 30.0059C55.7858 30.6021 56.4384 32.2297 55.8461 33.641C55.4047 34.6974 54.3903 35.3323 53.321 35.3323ZM66.3992 60.9612H66.4019C67.9154 60.9612 69.1437 59.7218 69.1437 58.1913C69.1437 56.6579 67.9181 55.4185 66.4047 55.4158L38.5977 55.388C38.2468 55.388 38.074 55.1967 38.0027 55.083C37.8629 54.8612 37.9424 54.6893 37.9726 54.6255C40.4237 49.3324 45.9484 42.9801 58.3329 42.7832C70.8874 42.5974 75.7979 49.1799 77.7857 54.7448C77.8076 54.8002 77.8543 54.9333 77.7254 55.1218C77.6651 55.2106 77.4841 55.4158 77.125 55.4158H73.1083C71.5948 55.4158 70.3665 56.6552 70.3665 58.1885C70.3665 59.7218 71.5948 60.9612 73.1083 60.9612H77.125C79.1566 60.9612 81.0594 59.9686 82.2137 58.3049C83.3378 56.6884 83.601 54.7032 82.943 52.8593C80.8181 46.9146 74.7698 37.1047 58.2452 37.2378C42.2278 37.4901 35.5571 46.7676 33.0072 52.2743C32.1381 54.1486 32.2779 56.3086 33.3746 58.0582C34.5042 59.8577 36.4564 60.9307 38.5922 60.9335L66.3992 60.9612Z" fill="url(#paint0_linear_5_86)"/>
<defs>
<linearGradient id="paint0_linear_5_86" x1="83.2983" y1="0.09375" x2="0.583344" y2="0.09375" gradientUnits="userSpaceOnUse">
<stop stop-color="#B3E5FC"/>
<stop offset="1" stop-color="#C8E6C9"/>
</linearGradient>
</defs>
</svg>
