<svg width="1440" height="200" xmlns="http://www.w3.org/2000/svg" fill="none">
 <g>
  <title>Layer 1</title>
  <path opacity="0.30001" fill-rule="evenodd" clip-rule="evenodd" d="m-6.43,8.013c0,0 125.681,126.157 309.74,126.157c184.059,0 240.533,-141.5227 447.017,-126.27c206.484,15.253 314.833,93.571 493.293,105.324c347.11,22.859 591.63,-53.53 591.63,-53.53l-93.33,143.056l-1802.67,-37.905l54.32,-156.832z" fill="#B3E5FC" id="svg_1"/>
  <path opacity="0.4993" fill-rule="evenodd" clip-rule="evenodd" d="m1826.84,-5.6495c0,0 -108.72,140.5565 -292.52,150.1865c-183.8,9.631 -189.3,-72.895 -394.69,-46.885c-205.393,26.01 -204.091,71.26 -381.689,92.315c-78.543,9.311 -230.239,-214.1392 -526.746,-86.369c-296.5073,127.77 -786.633,-198.29136 -786.633,-198.29136l417.195,285.73836l1964.953,15.598l0.13,-212.2925z" fill="white" id="svg_2"/>
  <path fill-rule="evenodd" clip-rule="evenodd" d="m-4.9944,106.864c0,0 37.3976,83.856 199.6224,83.856c162.224,0 205.41,-120.082 387.4,-104.891c181.989,15.19 277.482,93.187 434.782,104.891c305.93,22.765 521.44,-53.31 521.44,-53.31l-16.47,81.09l-1543.53,-15.561l16.7556,-96.075z" fill="white" id="svg_3"/>
 </g>

</svg>